<?xml version="1.0" standalone="no"?><!DOCTYPE svg PUBLIC "-//W3C//DTD SVG 1.1//EN" "http://www.w3.org/Graphics/SVG/1.1/DTD/svg11.dtd"><svg class="icon" width="200px" height="200.00px" viewBox="0 0 1024 1024" version="1.1" xmlns="http://www.w3.org/2000/svg"><path d="M772.835 125.464c21.286-5.039 43.541-11.349 66.762-18.916a7692.803 7692.803 0 0 0 33.865-13.713 412.654 412.654 0 0 0 33.863-15.604c5.156-3.148 10.644-5.985 16.448-8.512a214.74 214.74 0 0 0 17.416-8.512c3.222-1.256 5.956-2.674 8.225-4.256 2.254-1.566 4.989-2.985 8.226-4.255 3.869-2.513 6.773-4.095 8.707-4.73l3.87-2.837 1.935-0.945c0.637 0 0.968-0.149 0.968-0.473 0-0.312 0.317-0.474 0.968-0.474l0.969-0.945c4.505-4.404 9.825-6.458 15.964-6.148 6.122 0.325 11.128 2.689 14.996 7.093 4.506 4.419 6.774 9.458 6.774 15.132 0 5.675-2.269 10.729-6.774 15.132l-2.903 4.73c-0.648 0.635-1.133 1.271-1.45 1.892-0.333 0.635-0.817 1.271-1.452 1.891-1.299 1.271-2.268 2.838-2.902 4.729-0.65 1.891-1.616 3.473-2.901 4.729-2.585 3.163-4.839 5.837-6.772 8.039a319.469 319.469 0 0 0-6.773 8.038 693.165 693.165 0 0 0-13.546 15.606 220.268 220.268 0 0 1-14.514 15.605c-19.351 18.916-41.288 36.886-65.794 53.91-11.611 8.201-22.587 14.821-32.896 19.861L248.419 766.702c0.635 0 1.286-0.147 1.935-0.471 0.635-0.311 1.286-0.475 1.936-0.475a325.014 325.014 0 0 0 18.867-4.256c6.123-1.565 12.73-2.984 19.835-4.255a206.569 206.569 0 0 1 19.351-2.838c6.441-0.621 13.214-1.256 20.319-1.892 7.09-0.62 13.863-0.783 20.319-0.473 6.439 0.325 13.212 0.798 20.318 1.418 7.09 0.638 13.862 1.581 20.318 2.837a318.637 318.637 0 0 1 20.318 4.73 336.97 336.97 0 0 1 18.867 6.147 830.601 830.601 0 0 1 18.868 7.094c3.221 1.271 6.123 2.837 8.708 4.729 2.571 1.89 5.473 3.471 8.708 4.727 1.286 1.271 2.737 2.056 4.355 2.365 1.603 0.325 3.054 1.108 4.354 2.364 3.871 2.528 6.44 4.108 7.741 4.728 3.22 1.894 6.123 3.784 8.708 5.677 2.569 1.891 5.155 3.783 7.74 5.674a283.04 283.04 0 0 0 3.871 1.891c1.286 0.637 2.569 1.583 3.87 2.839l3.87 2.837 3.87 2.837c1.286 1.271 2.253 2.056 2.903 2.365 0.635 0.324 1.602 1.108 2.903 2.365l5.804 3.783 11.611 8.511c15.481 10.729 31.278 20.335 47.411 28.847 16.114 8.513 33.213 15.296 51.281 20.336 17.416 5.053 35.466 7.89 54.182 8.51 4.505 0 9.024-0.147 13.546-0.472 4.505-0.311 9.344-0.784 14.514-1.419a738.445 738.445 0 0 0 14.514-1.893c4.506-0.619 9.342-1.566 14.513-2.837 19.353-5.04 37.733-12.295 55.149-21.754 18.054-10.076 35.467-21.427 52.249-34.048 8.375-6.294 16.447-13.24 24.189-20.808 4.504-3.146 8.542-6.62 12.096-10.4a351.97 351.97 0 0 1 11.125-11.351c1.936-1.894 3.87-3.784 5.807-5.674 1.934-1.893 3.537-4.096 4.836-6.623a85.982 85.982 0 0 0 5.323-5.675 169.585 169.585 0 0 0 5.32-6.619c1.286-1.891 2.902-3.784 4.839-5.675 1.934-1.892 3.537-4.093 4.836-6.619 2.571-2.514 4.188-4.406 4.84-5.677l23.221-34.049 2.902-2.837v-0.945c2.569-3.147 5.956-5.202 10.158-6.146 4.188-0.947 7.894-0.147 11.128 2.364 7.09 5.053 9.026 11.676 5.805 19.862l-2.902 3.782-1.934 3.784-25.157 37.829-8.708 14.187a107.283 107.283 0 0 0-5.322 7.567 90.499 90.499 0 0 0-4.354 7.566c-1.3 2.526-2.902 4.728-4.836 6.62-1.938 1.89-3.554 4.107-4.84 6.621-3.233 5.054-6.619 9.781-10.158 14.186a396.311 396.311 0 0 1-11.125 13.242c-3.871 5.053-7.742 9.618-11.612 13.712a500.334 500.334 0 0 0-11.611 12.77c-16.131 18.294-33.548 34.048-52.248 47.288-18.717 14.511-39.669 27.737-62.89 39.724-5.807 2.511-11.612 5.038-17.417 7.564-5.807 2.513-11.61 4.729-17.416 6.621-12.911 5.039-25.488 8.822-37.734 11.35-25.157 5.674-51.613 7.877-79.34 6.62-7.106 0-13.879-0.324-20.318-0.946a206.703 206.703 0 0 1-19.353-2.837 510 510 0 0 0-10.159-1.891 759.032 759.032 0 0 1-10.159-1.893c-3.233-1.271-6.455-2.053-9.675-2.362-3.234-0.327-6.456-1.108-9.676-2.364-12.911-3.784-25.322-8.039-37.251-12.77a264.064 264.064 0 0 1-34.348-16.553c-3.235-1.271-6.138-2.688-8.708-4.255a574.699 574.699 0 0 0-8.707-5.201c-1.301-0.635-3.871-2.218-7.741-4.728-1.3-1.257-2.585-2.041-3.871-2.365-1.3-0.311-2.585-1.094-3.87-2.364l-1.935-0.947-1.935-0.946-2.904-1.891-5.804-3.783a118.252 118.252 0 0 0-6.289-3.783 98.027 98.027 0 0 1-6.29-3.784l-5.805-2.837c-2.585-1.256-4.52-2.512-5.805-3.782l-12.579-5.675a199.763 199.763 0 0 1-11.61-6.148c-3.87-2.2-8.072-4.255-12.579-6.145-3.869-1.894-7.739-3.784-11.61-5.677a107.845 107.845 0 0 1-11.61-6.621 235.29 235.29 0 0 1-12.578-5.674c-3.871-1.893-8.073-3.783-12.579-5.674a457.82 457.82 0 0 0-27.092-8.513c-9.041-2.513-18.383-4.094-28.06-4.73-5.17-0.619-10.008-0.781-14.513-0.471-4.52 0.323-9.357 0.798-14.514 1.418l-14.512 2.837c-1.3 0-2.585 0.162-3.871 0.475a15.95 15.95 0 0 1-3.87 0.472c-1.3 0.637-2.418 0.946-3.387 0.946-0.967 0-2.101 0.324-3.386 0.944a271.33 271.33 0 0 0-7.257 1.893 206.53 206.53 0 0 1-7.255 1.89l-14.514 5.677a336.607 336.607 0 0 0-14.513 5.674c-4.521 1.891-9.041 4.107-13.546 6.621-7.104 3.163-13.879 6.781-20.318 10.876a703.33 703.33 0 0 0-19.352 12.769l-59.02 54.854c-9.041 8.824-18.716 9.458-29.027 1.894-4.521-3.164-7.091-7.567-7.741-13.244-0.635-5.673 0.65-10.728 3.871-15.131 0.635-1.256 1.603-2.512 2.902-3.782l2.903-3.784c1.285-1.256 2.253-2.364 2.903-3.31 0.634-0.945 1.603-2.04 2.902-3.312 1.935-2.512 3.87-4.729 5.805-6.619 1.936-1.893 3.871-4.094 5.805-6.621a228.73 228.73 0 0 1 25.157-24.59c15.481-15.132 33.531-30.265 54.183-45.398l8.708-5.674 619.236-569.36c-5.171 1.271-9.843 2.217-14.03 2.837a471.41 471.41 0 0 1-14.03 1.892c-2.585 0.635-6.455 0.946-11.608 0.946-2.586 0.636-6.456 0.945-11.612 0.945-4.519 0.636-8.706 0.947-12.577 0.947h-11.611c-14.846 0-31.294-1.567-49.346-4.73-32.896-5.673-63.541-15.753-91.917-30.265l-5.806-2.837-2.903-0.946-2.902-1.892-7.739-4.729a134.137 134.137 0 0 1-7.257-3.784 179.268 179.268 0 0 0-7.257-3.782 729.971 729.971 0 0 0-14.997-7.093 579.623 579.623 0 0 1-14.998-7.094c-9.675-4.404-20-8.512-30.962-12.295l-31.928-11.349a585.02 585.02 0 0 0-33.382-8.512 608.742 608.742 0 0 0-34.348-6.621 322.798 322.798 0 0 0-69.663 0 329.025 329.025 0 0 1-17.417 3.311c-5.805 0.945-11.61 2.364-17.416 4.255-11.61 3.784-21.937 8.512-30.962 14.188a35.78 35.78 0 0 0-7.257 4.729 35.874 35.874 0 0 1-7.257 4.729 112.26 112.26 0 0 1-6.289 5.674c-2.268 1.892-4.353 4.108-6.289 6.621a48.415 48.415 0 0 0-5.321 6.148 52.877 52.877 0 0 0-4.355 7.092c-2.585 5.675-4.202 11.039-4.837 16.079 0 0.635-0.166 1.581-0.484 2.836a14.868 14.868 0 0 0-0.483 3.784V252.668c0 2.837 0.317 5.838 0.967 8.984 0.636 5.675 1.77 11.351 3.386 17.024a185.663 185.663 0 0 0 5.322 16.079 314.806 314.806 0 0 0 3.386 8.039 119.218 119.218 0 0 0 3.386 7.094c1.286 2.527 2.736 4.729 4.355 6.621a71.177 71.177 0 0 1 4.353 5.675c3.221 4.418 6.607 8.364 10.159 11.822 3.538 3.472 6.925 6.783 10.16 9.931 3.221 3.163 6.773 6 10.643 8.512a5724.66 5724.66 0 0 0 11.61 7.567 52.768 52.768 0 0 0 5.806 3.31c1.935 0.945 4.187 2.054 6.772 3.311l5.806 2.837c1.935 0 4.188 0.635 6.773 1.891 4.504 1.271 9.025 2.527 13.545 3.784a409.884 409.884 0 0 0 14.513 3.783c3.221 0 8.058 0.636 14.514 1.892 3.221 0 5.473 0.325 6.773 0.945h8.708c14.831 1.271 27.091 7.729 36.767 19.389 9.675 11.675 13.863 24.753 12.578 39.25-1.3 13.876-7.255 25.389-17.899 34.52-10.643 9.147-23.071 13.715-37.252 13.715h-11.61c-2.585-0.622-4.837-0.946-6.773-0.946-1.935 0-3.87-0.31-5.805-0.946-4.52-0.62-8.708-1.256-12.578-1.891-3.871-0.622-8.074-1.566-12.579-2.837-7.74-1.893-15.646-4.258-23.705-7.095-8.073-2.836-15.965-6.458-23.706-10.875-1.935-1.257-5.488-3.148-10.643-5.675-1.935-1.257-3.87-2.513-5.806-3.783-1.935-1.257-3.552-2.512-4.838-3.782a123.048 123.048 0 0 0-10.159-7.094c-3.553-2.203-6.939-4.877-10.159-8.04a161.559 161.559 0 0 1-17.9-18.442 167.945 167.945 0 0 1-14.997-21.279c-9.041-14.497-15.48-29.631-19.351-45.398a622.92 622.92 0 0 0-1.936-12.294c-0.65-3.784-1.3-7.567-1.935-11.351v-23.644c0-7.567 0.635-15.132 1.935-22.699a1330.742 1330.742 0 0 1 3.871-21.753 721.234 721.234 0 0 0 1.936-9.93c0.635-3.458 1.602-7.094 2.902-10.877 0.635-1.256 1.286-3.147 1.935-5.674 0.636-2.512 1.603-5.675 2.903-9.458 0-1.256 0.635-3.148 1.935-5.675a226.68 226.68 0 0 1 4.354-9.93 246.878 246.878 0 0 0 4.354-9.93 224.467 224.467 0 0 1 4.354-9.931 97.93 97.93 0 0 1 5.322-9.931 160.36 160.36 0 0 1 6.288-9.458 157.168 157.168 0 0 0 6.289-9.458 241.578 241.578 0 0 1 7.257-8.512c2.252-2.513 4.989-5.04 8.224-7.566 9.676-9.458 20.954-18.916 33.865-28.373 12.896-8.822 25.792-16.079 38.702-21.753 27.091-13.241 55.786-22.699 86.113-28.375a362.526 362.526 0 0 1 44.991-6.62c15.148-1.256 30.478-1.566 45.958-0.945 14.831 1.271 29.828 3 44.991 5.202 15.149 2.216 30.146 5.837 44.992 10.875 13.545 3.783 27.727 9.147 42.572 16.079a70.273 70.273 0 0 1 11.127 4.728c3.537 1.892 6.923 3.474 10.16 4.729l4.836 2.838 3.87 2.837 2.904 0.945 3.868 1.891a228.186 228.186 0 0 0 57.088 20.808c19.35 5.055 39.669 6.946 60.955 5.675 19.352 0.001 40.955-2.512 64.828-7.566z" fill="#050000" /></svg>